PathFileType	4	(X/Y/Z)	Patient4_TMGait_0pt3_01_left_24.trc.trc
DataRate	CameraRate	NumFrames	NumMarkers	Units	OrigDataRate	OrigDataStartFrame	OrigNumFrames
52.434456928839	52.434456928839	4	33	mm	52.434456928839	53	       141
Frame#	Time	Sacral			L.Shoulder			Chest			R.Shoulder			Neck			R.ASIS			L.ASIS			R.Thigh.Superior			R.Thigh.Lateral			R.Thigh.Inferior			R.Patella			L.Thigh.Superior			L.Thigh.Lateral			L.Thigh.Inferior			L.Patella			L.Shank.Superior			L.Shank.Lateral			L.Shank.Inferior			R.Shank.Superior			R.Shank.Lateral			R.Shank.Inferior			R.Heel			R.Midfoot.Superior			R.Midfoot.Lateral			R.Toe			L.Heel			L.Midfoot.Lateral			L.Midfoot.Superior			L.Toe			L.Elbow			L.Wrist			R.Elbow			R.Wrist			
		X1	Y1	Z1	X2	Y2	Z2	X3	Y3	Z3	X4	Y4	Z4	X5	Y5	Z5	X6	Y6	Z6	X7	Y7	Z7	X8	Y8	Z8	X9	Y9	Z9	X10	Y10	Z10	X11	Y11	Z11	X12	Y12	Z12	X13	Y13	Z13	X14	Y14	Z14	X15	Y15	Z15	X16	Y16	Z16	X17	Y17	Z17	X18	Y18	Z18	X19	Y19	Z19	X20	Y20	Z20	X21	Y21	Z21	X22	Y22	Z22	X23	Y23	Z23	X24	Y24	Z24	X25	Y25	Z25	X26	Y26	Z26	X27	Y27	Z27	X28	Y28	Z28	X29	Y29	Z29	X30	Y30	Z30	X31	Y31	Z31	X32	Y32	Z32	X33	Y33	Z33	

53	45.981714285714	725.631229798983	1004.664587883515	461.986250558896	928.876499991334	1427.313345319494	282.713093549176	1028.442419303649	1348.186707621245	441.458356545938	953.001135678315	1426.652402157138	615.871478394786	920.630168673042	1486.535552088461	441.989110503992	952.876203641076	934.504641816342	579.184838773468	939.730400404438	948.808908342085	306.077958143891	991.152172358684	733.235321470757	562.960773471741	913.651625568010	627.720572302689	634.234930526353	992.160995441754	565.332224593110	560.119220693194	982.580978115499	457.467992352922	586.039348561084	998.007733835175	747.005487490688	345.927870311538	921.019477830457	620.706389938739	292.390212451124	1012.269402377112	551.613318500785	359.482580656531	1017.085437136972	476.582939277776	368.703874138769	976.864696806762	403.896972486429	364.003641854065	872.719347902310	301.663345391524	316.620898490435	905.895596429766	186.188895047255	388.345202677243	902.536137964148	393.984927234864	595.407213664490	781.295855386960	361.572197611150	659.106486707129	762.845817357440	251.323673193221	612.857910846198	557.529783329935	193.978579626796	589.655669830634	724.679401051344	132.010210310969	629.761824225938	615.696948126391	133.817483789847	662.915815678884	787.935500616022	31.086872359797	654.504311699838	760.232248926275	40.542325785164	431.333113930108	832.219272017854	36.957216643288	349.767422415939	917.710340108287	95.760823399819	374.769798213397	1043.936991789988	39.611065471012	341.105460365542	892.946366497672	1091.141369063114	133.794809733807	974.623272696524	842.226671731511	127.989006412503	990.357540297134	1081.340737277523	736.531632567060	1139.512643420057	872.391196593925	779.643071337995	
54	46.000785714286	723.926020277775	1002.357619005476	458.081914513636	930.654145655880	1425.668843492016	281.504035358679	1027.647042296118	1346.002950571199	441.530857835331	949.716631612150	1423.710995401335	615.311583815008	920.278142950729	1484.546198822415	441.073153400785	950.652121706303	933.142430082449	577.195992652761	939.588295992049	946.964071153356	303.913855202145	995.549103669331	734.974044879892	559.916782851759	922.660280512215	627.127995736256	631.382229824774	1003.095669281919	567.051657749197	556.871874974302	995.967792712635	457.724642298279	583.176964148625	998.117482930016	745.197120706442	343.883771327020	921.243732910027	618.742057878067	290.936052005104	1012.277562770197	549.818740311913	358.612743881263	1016.961156973880	474.582334506544	368.268452998164	975.770714576622	401.811986581195	363.619087409298	870.527806855505	300.712346619504	316.067394010200	901.660958030586	185.088795225465	388.263485763418	914.332495857052	394.403000797179	592.503621911656	791.566429325565	365.539834575629	655.732609697311	770.189049777411	255.632158586095	609.975504042503	563.556641385619	205.230279607387	585.814659026341	728.792323812297	137.321690680556	627.735474189493	619.116430950742	143.011406373388	659.738768770655	787.860349133404	30.883587742303	653.244057662270	754.477864417187	40.483828575630	431.181667951433	826.486189655557	36.855201483634	349.625349628543	911.987883657864	95.604162603917	374.790521214178	1038.224974046393	39.545203569765	341.050892573119	905.980166271705	1089.713134364844	129.598777513920	996.773858840157	844.115663750683	122.766933463996	970.076986389180	1075.341985356366	733.557121594870	1103.605116682345	855.897234670604	775.167790546373	
55	46.019857142857	722.238941722828	1000.217459220553	454.592739766448	932.345873890282	1424.137227785903	280.610418764145	1026.735143527405	1344.041256620080	441.930197180122	946.206563230907	1421.015174507727	615.003260110396	919.810522905253	1482.737789925737	440.416168703503	948.408569315009	931.963109670889	575.636814646669	939.428485322800	945.270809560929	302.162868959026	999.648719475339	737.179522122687	557.169356001331	931.418989240750	627.086887259725	628.790347144277	1013.667791917006	569.450753011629	553.868461316421	1009.179424837378	458.824156843608	580.394337458525	998.046197201379	743.411727705083	342.134463303468	921.112630643529	616.911958771430	289.727257823711	1011.863601329824	548.061605696483	357.956953223699	1016.373903507664	472.683882452169	368.055259259901	974.299865952264	399.849231097500	363.402331736090	868.070828347679	299.805899222692	315.627115356504	897.304344655789	184.046618565034	388.236367166211	926.304406838021	395.337005944346	589.645689363783	802.182619618373	369.185181265540	652.258365388094	778.598657539108	259.530160718973	606.883385063611	570.963646124314	214.356989705302	581.646283725015	734.778006088902	142.119734186782	625.260432520278	624.486451878678	150.680427029798	656.207511353706	790.645916695111	30.995671259181	651.561323437582	748.707310988000	40.405905108048	431.033170609255	820.743704058920	36.750567256264	349.478717727825	906.251388759310	95.447157159911	374.816993661134	1032.504208456792	39.491467658960	340.998661354659	918.679977786107	1088.851304684851	125.898477833638	1019.857228929681	847.503939386267	118.499896473199	949.193800311868	1070.416007028311	730.305949554681	1066.423945567467	841.613906375679	769.713000525395	
56	46.038928571429	720.635684193401	998.439052690097	451.511166819667	933.970250665489	1422.902641272282	280.041911486281	1025.731291407741	1342.505968189237	442.665621063381	942.487787604074	1418.781950364732	614.932341012525	919.230031234113	1481.289902879272	440.013435419444	946.187456083941	931.131694725171	574.509302804665	939.322014704669	943.902483703004	300.845130201693	1003.311702580740	739.896397751944	554.773433815300	939.651295920717	627.702344431631	626.516253190270	1023.559772120961	572.555177295190	551.180601313461	1021.860941846559	460.854306752388	577.789222243832	997.730714145400	741.727625798339	340.717598545689	920.480009900190	615.349007094736	288.762391572983	1010.813105347234	546.417329234716	357.520389868041	1015.069896160703	470.985206443062	368.053506007530	972.237746947965	398.126433640369	363.332100204312	865.187566560682	299.004431140231	315.287780743824	892.754444979089	183.128504673722	388.248964248041	938.208732921683	396.836134671072	586.935016652784	812.978875901053	372.298366876452	648.806497178203	788.153552521225	262.743910248262	603.704565193504	579.899969117596	220.592915420114	577.315215356327	742.953632662935	146.027219555898	622.446698904205	632.123174753974	156.186995728159	652.473397265119	796.919301704923	31.408373085626	649.552282663169	742.918001214015	40.318908392334	430.889699198883	814.991268751349	36.650513470338	349.331994050063	900.501500576754	95.301308932667	374.839016761254	1026.773039504322	39.449290192779	340.949130421842	930.985430817476	1088.699247285253	122.723445839033	1043.689051311659	852.666556069225	115.245512745177	927.942587927998	1066.840375272077	726.784641113868	1028.357237245408	829.910381175570	763.433594019043	
